<svg id="Capa_1" enable-background="new 0 0 512 512" height="512" viewBox="0 0 512 512" width="512" xmlns="http://www.w3.org/2000/svg"><g><path d="m393.322 222.553h-12.837c-5.816-24.05-17.755-45.733-34.071-63.303v-53.318c0-10.305-8.383-18.688-18.688-18.688h-1.343v-44.317c.001-23.67-19.256-42.927-42.926-42.927h-82.605c-10.694 0-20.94 3.956-28.85 11.141-3.066 2.785-3.295 7.528-.51 10.594 2.784 3.067 7.527 3.294 10.594.51 5.143-4.672 11.808-7.245 18.765-7.245h11.34v72.244h-39.268v-41.292c0-4.143-3.357-7.5-7.5-7.5s-7.5 3.357-7.5 7.5v41.292h-1.343c-10.305 0-18.688 8.383-18.688 18.688v53.318c-23.596 25.41-38.051 59.422-38.051 96.751s14.454 71.341 38.051 96.751v53.318c0 10.305 8.383 18.688 18.688 18.688h1.343v44.316c0 23.671 19.257 42.928 42.928 42.928h82.605c17.306 0 32.836-10.304 39.565-26.25 1.61-3.816-.178-8.216-3.994-9.826s-8.216.177-9.826 3.994c-4.378 10.375-14.484 17.08-25.744 17.08h-11.34v-72.244h39.268v28.22c0 4.143 3.357 7.5 7.5 7.5s7.5-3.357 7.5-7.5v-28.22h1.343c10.305 0 18.688-8.383 18.688-18.688v-53.318c16.316-17.57 28.255-39.253 34.071-63.303h12.837c10.386 0 18.836-8.45 18.836-18.836v-29.223c-.002-10.385-8.452-18.835-18.838-18.835zm-81.938-179.626v44.317h-39.268v-72.244h11.34c15.4 0 27.928 12.528 27.928 27.927zm-84.193-27.927h29.926v72.244h-29.926zm-70.61 87.244h171.146c2.033 0 3.688 1.654 3.688 3.688v39.319c-24.43-19.729-55.487-31.562-89.261-31.562s-64.831 11.834-89.261 31.562v-39.319c0-2.034 1.654-3.688 3.688-3.688zm85.573 26.444c70.2 0 127.312 57.111 127.312 127.312s-57.111 127.312-127.312 127.312-127.312-57.112-127.312-127.312 57.112-127.312 127.312-127.312zm-69.231 340.384v-44.316h39.268v72.244h-11.34c-15.399 0-27.928-12.528-27.928-27.928zm84.194 27.928h-29.926v-72.244h29.926zm70.61-87.244h-171.146c-2.033 0-3.688-1.654-3.688-3.688v-39.319c24.43 19.729 55.487 31.562 89.261 31.562s64.831-11.834 89.261-31.562v39.319c0 2.034-1.655 3.688-3.688 3.688zm69.431-139.145c0 2.115-1.721 3.836-3.836 3.836h-10.051c.785-6.04 1.194-12.197 1.194-18.447s-.409-12.407-1.194-18.447h10.051c2.115 0 3.836 1.721 3.836 3.836z"/><path d="m249.654 184.113c0-4.143-3.357-7.5-7.5-7.5s-7.5 3.357-7.5 7.5v5.361c0 4.143 3.357 7.5 7.5 7.5s7.5-3.357 7.5-7.5z"/><path d="m308.679 248.5c-4.143 0-7.5 3.357-7.5 7.5s3.357 7.5 7.5 7.5h5.361c4.143 0 7.5-3.357 7.5-7.5s-3.357-7.5-7.5-7.5z"/><path d="m242.154 315.025c-4.143 0-7.5 3.357-7.5 7.5v5.361c0 4.143 3.357 7.5 7.5 7.5s7.5-3.357 7.5-7.5v-5.361c0-4.142-3.358-7.5-7.5-7.5z"/><path d="m170.267 248.5c-4.143 0-7.5 3.357-7.5 7.5s3.357 7.5 7.5 7.5h5.361c4.143 0 7.5-3.357 7.5-7.5s-3.357-7.5-7.5-7.5z"/><path d="m249.654 213.191c0-4.143-3.357-7.5-7.5-7.5s-7.5 3.357-7.5 7.5v35.309h-13.156c-4.143 0-7.5 3.357-7.5 7.5s3.357 7.5 7.5 7.5h20.656c4.143 0 7.5-3.357 7.5-7.5z"/><path d="m242.154 364.184c59.652 0 108.184-48.531 108.184-108.184 0-12.961-2.274-25.647-6.76-37.706-1.443-3.884-5.763-5.859-9.644-4.415-3.883 1.443-5.859 5.762-4.415 9.644 3.86 10.381 5.818 21.308 5.818 32.478 0 51.382-41.802 93.184-93.184 93.184s-93.183-41.803-93.183-93.185 41.802-93.184 93.184-93.184c29.159 0 56.096 13.278 73.904 36.429 2.523 3.283 7.233 3.9 10.517 1.372 3.283-2.525 3.898-7.233 1.372-10.517-20.669-26.872-51.939-42.284-85.793-42.284-59.652 0-108.184 48.531-108.184 108.184s48.531 108.184 108.184 108.184z"/></g></svg>