<svg id="Capa_1" enable-background="new 0 0 512 512" height="512" viewBox="0 0 512 512" width="512" xmlns="http://www.w3.org/2000/svg"><g><path d="m377 0c-32.082 0-48.364 4.037-64.109 7.941-14.643 3.63-28.473 7.059-56.891 7.059s-42.248-3.429-56.891-7.059c-15.745-3.904-32.027-7.941-64.109-7.941-74.439 0-135 60.561-135 135 0 30.97 10.612 60.873 30 84.846v217.154c0 41.355 33.645 75 75 75h302c41.355 0 75-33.645 75-75v-217.154c19.388-23.973 30-53.875 30-84.846 0-74.439-60.561-135-135-135zm78.753 204.438-3.753 4.252v228.31c0 24.813-20.187 45-45 45h-302c-24.813 0-45-20.187-45-45v-228.31l-3.753-4.253c-16.926-19.18-26.247-43.84-26.247-69.437 0-57.897 47.103-105 105-105 28.418 0 42.248 3.429 56.891 7.059 15.745 3.904 32.027 7.941 64.109 7.941s48.364-4.037 64.109-7.941c14.643-3.63 28.473-7.059 56.891-7.059 57.897 0 105 47.103 105 105 0 25.597-9.321 50.257-26.247 69.438z"/><path d="m377 60c-24.757 0-35.751 2.726-49.672 6.178-15.853 3.93-35.584 8.822-71.328 8.822s-55.475-4.892-71.329-8.822c-13.92-3.452-24.914-6.178-49.671-6.178-41.355 0-75 33.645-75 75 0 18.283 6.656 35.894 18.741 49.587l11.259 12.759v254.654h332v-254.654l11.259-12.758c12.085-13.694 18.741-31.305 18.741-49.588 0-41.355-33.645-75-75-75zm33.765 104.738-18.765 21.264v235.998h-272v-235.998l-18.766-21.265c-7.244-8.209-11.234-18.77-11.234-29.737 0-24.813 20.187-45 45-45 21.093 0 29.59 2.107 42.453 5.296 17.438 4.324 39.14 9.704 78.547 9.704s61.109-5.38 78.55-9.704c12.86-3.189 21.357-5.296 42.45-5.296 24.813 0 45 20.187 45 45 0 10.967-3.99 21.528-11.235 29.738z"/><path d="m332 302h30v30h-30z"/><path d="m272 362h30v30h-30z"/><path d="m150 135h30v30h-30z"/></g></svg>