<svg id="Layer_1" enable-background="new 0 0 512 512" height="512" viewBox="0 0 512 512" width="512" xmlns="http://www.w3.org/2000/svg"><g><g><path d="m485.096 214.806-63.031-137.986c-6.227-13.63-13.287-20.902-26.982-27.79-.361-.181-.732-.34-1.112-.477l-48.758-17.517.007-.626c.032-2.985-1.271-5.829-3.554-7.753l-24.085-20.303c-2.467-2.078-5.783-2.841-8.908-2.046-1.023.26-1.974.689-2.846 1.237-.284.111-.566.231-.844.371-14.937 7.48-31.874 11.433-48.983 11.433s-34.047-3.954-48.983-11.434c-.277-.139-.559-.259-.842-.37-.872-.548-1.825-.978-2.848-1.238-3.127-.795-6.442-.032-8.908 2.046l-24.085 20.302c-2.283 1.924-3.586 4.768-3.554 7.754l.007.627-48.757 17.517c-.38.136-.751.296-1.112.477-13.695 6.888-20.756 14.16-26.982 27.79l-63.032 137.987c-2.086 4.567-.462 9.974 3.796 12.635l75.303 47.064v207.494c0 4.883 3.526 9.051 8.341 9.861l118.892 20.001c2.02.34 4.091.051 5.941-.824l16.823-7.972 16.824 7.972c1.345.637 2.808.963 4.282.963.554 0 1.108-.046 1.659-.139l118.892-20.001c4.814-.81 8.341-4.979 8.341-9.861v-207.494l75.303-47.064c4.258-2.661 5.882-8.068 3.795-12.636zm-182.267-123.44 8.871 23.986-37.533 16.65 41.198-105.357 9.806 8.265-.382 35.389-17.106 8.681c-4.529 2.297-6.616 7.623-4.854 12.386zm-9.433-63.459-37.396 95.635-37.396-95.635c12.04 3.584 24.684 5.443 37.396 5.443 12.712-.001 25.356-1.859 37.396-5.443zm-96.76-1.263 41.198 105.357-37.533-16.65 8.871-23.986c1.761-4.762-.326-10.088-4.854-12.386l-17.106-8.681-.381-35.389zm209.361 224.276v-61.959c0-5.523-4.478-10-10-10s-10 4.477-10 10v284.58l-107.45 18.077-12.547-5.946v-119.172c0-5.523-4.478-10-10-10-5.523 0-10 4.477-10 10v119.172l-12.546 5.945-107.451-18.077v-284.58c0-5.523-4.477-10-10-10s-10 4.477-10 10v61.96l-57.26-35.788 59.384-130.002c4.247-9.296 8.006-13.243 17.25-17.965l41.639-14.958.263 24.372c.04 3.727 2.15 7.123 5.474 8.81l14.571 7.395-9.037 24.435c-1.83 4.95.5 10.47 5.324 12.61l62.389 27.676v118.995c0 5.523 4.477 10 10 10s10-4.477 10-10v-118.996l62.389-27.677c4.824-2.14 7.155-7.66 5.324-12.61l-9.037-24.435 14.572-7.395c3.324-1.687 5.434-5.083 5.474-8.81l.262-24.372 41.639 14.959c9.244 4.722 13.003 8.669 17.25 17.965l59.384 130.002z"/><path d="m355.996 178.961h-59.994c-5.522 0-10 4.477-10 10s4.478 10 10 10h59.994c5.522 0 10-4.477 10-10s-4.478-10-10-10z"/><path d="m256 311.5h-.007c-5.523 0-9.996 4.477-9.996 10s4.48 10 10.003 10 9.999-4.477 9.999-10-4.476-10-9.999-10z"/></g></g></svg>