<svg id="Layer_1" enable-background="new 0 0 512 512" height="512" viewBox="0 0 512 512" width="512" xmlns="http://www.w3.org/2000/svg"><g><path d="m494.5 208.5h-12.5v-50.5c0-11.855-9.645-21.5-21.5-21.5h-32c-2.265 0-4.448.357-6.5 1.01v-3.01c0-16.266-13.234-29.5-29.5-29.5h-40c-16.266 0-29.5 13.234-29.5 29.5v88.291h-134v-88.291c0-16.266-13.234-29.5-29.5-29.5h-40c-16.266 0-29.5 13.234-29.5 29.5v3.01c-2.052-.653-4.235-1.01-6.5-1.01h-32c-11.855 0-21.5 9.645-21.5 21.5v9.687c0 4.142 3.358 7.5 7.5 7.5s7.5-3.358 7.5-7.5v-9.687c0-3.584 2.916-6.5 6.5-6.5h32c3.584 0 6.5 2.916 6.5 6.5v196c0 3.584-2.916 6.5-6.5 6.5h-32c-3.584 0-6.5-2.916-6.5-6.5v-154.221c0-4.142-3.358-7.5-7.5-7.5s-7.5 3.358-7.5 7.5v8.721h-12.5c-9.649 0-17.5 7.851-17.5 17.5v60c0 9.649 7.851 17.5 17.5 17.5h12.5v50.5c0 11.855 9.645 21.5 21.5 21.5h32c2.265 0 4.448-.357 6.5-1.01v3.01c0 16.266 13.234 29.5 29.5 29.5h40c16.266 0 29.5-13.234 29.5-29.5v-88.291h10.916c4.142 0 7.5-3.358 7.5-7.5s-3.358-7.5-7.5-7.5h-10.916v-36.418h134v36.418h-90.572c-4.142 0-7.5 3.358-7.5 7.5s3.358 7.5 7.5 7.5h90.572v88.291c0 16.266 13.234 29.5 29.5 29.5h40c16.266 0 29.5-13.234 29.5-29.5v-3.01c2.052.653 4.235 1.01 6.5 1.01h32c11.855 0 21.5-9.645 21.5-21.5v-10.128c0-4.142-3.358-7.5-7.5-7.5s-7.5 3.358-7.5 7.5v10.128c0 3.584-2.916 6.5-6.5 6.5h-32c-3.584 0-6.5-2.916-6.5-6.5v-196c0-3.584 2.916-6.5 6.5-6.5h32c3.584 0 6.5 2.916 6.5 6.5v153.5c0 4.142 3.358 7.5 7.5 7.5s7.5-3.358 7.5-7.5v-8h12.5c9.649 0 17.5-7.851 17.5-17.5v-60c0-9.649-7.851-17.5-17.5-17.5zm-477 80c-1.378 0-2.5-1.122-2.5-2.5v-60c0-1.378 1.122-2.5 2.5-2.5h12.5v65zm156.5 89c0 7.995-6.505 14.5-14.5 14.5h-40c-7.995 0-14.5-6.505-14.5-14.5v-243c0-7.995 6.505-14.5 14.5-14.5h40c7.995 0 14.5 6.505 14.5 14.5zm233 0c0 7.995-6.505 14.5-14.5 14.5h-40c-7.995 0-14.5-6.505-14.5-14.5v-243c0-7.995 6.505-14.5 14.5-14.5h40c7.995 0 14.5 6.505 14.5 14.5zm90-91.5c0 1.378-1.122 2.5-2.5 2.5h-12.5v-65h12.5c1.378 0 2.5 1.122 2.5 2.5z"/></g></svg>